<svg xmlns="http://www.w3.org/2000/svg" xmlns:xlink="http://www.w3.org/1999/xlink" viewBox="0 0 100 125" version="1.1" x="0px" y="0px"><title>svg/008-ok-agree-acept-yes-sticker-xuxu-emoji</title><desc>Created with Sketch.</desc><g stroke="none" stroke-width="1" fill="none" fill-rule="evenodd"><g transform="translate(-450.000000, -300.000000)" fill="#000000"><g transform="translate(456.477458, 306.604949)"><path d="M26.3582093,60.6505494 L27.0370458,60.8670416 C26.8722165,61.3923718 26.7111735,61.9208866 26.5545423,62.4500511 C24.8525423,68.2000511 23.6665423,74.0280511 23.8565423,76.6700511 C30.4915423,78.7280511 36.6765423,79.5130511 42.1985423,79.5262069 C49.5985423,79.5430511 55.8055423,78.1670511 60.2955423,76.5730511 C60.2465423,74.4610511 59.8815423,71.5000511 59.3085423,68.2780511 C59.1542705,67.4089965 58.9843233,66.521208 58.8005329,65.6260329 L60.7430295,68.9618792 C61.2728397,72.1432607 61.5671151,75.0176503 61.5625947,77.0130511 C61.5625947,77.2790511 61.3965423,77.5160511 61.1465423,77.6060511 C58.8688673,78.4204894 56.1362862,79.1868522 53.0195697,79.7448367 C53.079321,80.3369092 53.1048502,80.960494 53.0935423,81.6110511 C53.0325423,83.5510511 52.7285423,85.2380511 51.7805423,86.4220511 C51.1375423,87.2250511 50.2095423,87.8110511 48.8605423,88.0750511 C47.6225423,88.3910511 44.4055423,88.6270511 42.1345423,88.1080511 C41.6613791,87.9999202 41.2303483,87.8542651 40.8587923,87.6720413 C40.4772482,87.8438362 40.0467121,87.9801734 39.5615423,88.0750511 C38.3245423,88.3910511 35.1075423,88.6270511 32.8365423,88.1080511 C31.5325423,87.8100511 30.5485423,87.2270511 30.2465423,86.3790511 C29.9955423,85.6730511 30.0815423,85.0380511 30.3355423,84.4610511 C30.6605423,83.7240511 31.2945423,83.0890511 31.8245423,82.5290511 C32.0365423,82.3050511 32.2285423,82.0960511 32.3615423,81.8950511 C32.4275423,81.7940511 32.4815423,81.7040511 32.4805423,81.6110511 C32.4720636,80.9596036 32.4942596,80.3358354 32.545053,79.7424377 C29.5778213,79.2357648 26.4860258,78.4865841 23.2955423,77.4450511 C23.1265423,77.3910511 23.0045423,77.2430511 22.9835423,77.0670511 C22.6975423,74.5180511 23.9715423,68.3280511 25.8535423,62.2380511 C26.0174419,61.7072799 26.1858894,61.177284 26.3582093,60.6505494 Z M33.5900986,79.9150271 L33.5790924,79.999084 C33.5270732,80.5121375 33.4968757,81.0501622 33.4895423,81.6110511 C33.4845423,82.0150511 33.2235423,82.4630511 32.7945423,82.9190511 C32.2805423,83.4660511 31.5175423,84.0740511 31.1545423,84.8370511 C30.9745423,85.2150511 30.8995423,85.6340511 31.0525423,86.1070511 C31.1645423,86.4570511 31.4655423,86.7210511 31.8685423,86.9370511 C32.4125423,87.2290511 33.1295423,87.4250511 33.9085423,87.5540511 C35.9475423,87.8910511 38.4005423,87.7670511 39.4345423,87.5380511 C39.7134984,87.4595645 39.9697327,87.367101 40.2049502,87.2614625 C39.8912612,87.0093988 39.6647967,86.7150234 39.5455423,86.3790511 C39.2845423,85.6470511 39.4095423,84.9910511 39.7255423,84.3950511 C40.1685423,83.5580511 41.0435423,82.8540511 41.6455423,82.2430511 C41.7775423,82.1090511 41.8935423,81.9810511 41.9825423,81.8560511 C42.0445423,81.7690511 42.0975423,81.6920511 42.0965423,81.6110511 C42.0922438,81.2757694 42.0947781,80.9478635 42.1040264,80.6276982 C39.4109938,80.5938257 36.564579,80.3739716 33.5900986,79.9150271 Z M51.8535602,79.9397114 L51.7176956,79.9619389 C49.0957106,80.367299 46.2255415,80.6199942 43.145377,80.6335234 C43.1258428,80.9494874 43.1148147,81.2762051 43.1105423,81.6110511 C43.1055423,82.0200511 42.8165423,82.4800511 42.3345423,82.9420511 C41.7715423,83.4810511 40.9415423,84.0810511 40.5155423,84.8290511 C40.3005423,85.2080511 40.1965423,85.6290511 40.3505423,86.1070511 C40.4625423,86.4570511 40.7645423,86.7210511 41.1665423,86.9370511 C41.7105423,87.2290511 42.4275423,87.4250511 43.2065423,87.5540511 C45.2465423,87.8910511 47.6985423,87.7670511 48.7325423,87.5380511 C50.1765423,87.1320511 51.0105423,86.3520511 51.4745423,85.3090511 C51.9285423,84.2860511 52.0245423,83.0190511 51.9815423,81.6110511 C51.9700364,81.0280821 51.925025,80.4704465 51.8535602,79.9397114 Z M49.5555423,0.587051062 C58.7675423,2.19105106 67.7105423,7.33105106 73.3585423,14.4540511 C79.0245423,21.5980511 81.3875423,30.7230511 77.4875423,40.2870511 C79.1105423,40.4930511 82.5575423,41.1590511 85.0425423,43.2300511 C87.1025423,44.9470511 88.5415423,47.5990511 87.8125423,51.7090511 C87.7635423,51.9840511 87.5425423,52.1950511 87.2655423,52.2310511 C83.3255423,52.7320511 80.6315423,51.9910511 78.7855423,50.7780511 C76.0500981,48.982123 75.1497091,46.1202099 74.8533084,44.4716937 C73.6972524,47.3959053 71.7493437,49.9663532 69.0245423,52.0150511 C66.1465423,54.1790511 62.3945423,55.7600511 57.7885423,56.5380511 C52.7905423,57.3810511 46.7775423,57.2760511 39.7805423,55.9660511 C36.4269461,55.389257 33.3749543,54.6538124 30.6190953,53.7797605 L30.6289314,53.7594385 L27.9461589,52.65469 L26.8203615,52.4135838 C25.5893723,51.9133897 24.431271,51.381184 23.3453805,50.8194476 L23.5017963,50.1228984 C27.7726945,52.4044757 33.2184082,54.2203908 39.8765423,55.4230511 C46.7955423,56.5690511 52.7175423,56.5450511 57.6255423,55.6250511 C62.0335423,54.7980511 65.6135423,53.2410511 68.3515423,51.1310511 C70.9065212,49.1612587 72.7179676,46.7065737 73.7707995,43.9249711 C67.1635378,44.3373121 57.6325765,42.4978822 48.6655423,39.0680511 C39.4365423,35.5370511 30.8145423,30.3280511 26.5735423,24.2830511 C23.0205423,28.7460511 21.0585423,31.1350511 18.4285423,32.0910511 C16.6940794,32.7209301 14.6653834,32.7362077 11.6937553,32.288608 C11.4521672,35.6967912 12.242909,38.9562655 14.1095423,41.9240511 C14.801428,43.0238077 15.6389534,44.0830297 16.6238429,45.0949489 L15.8128692,45.362719 C14.8895357,44.3994843 14.0956577,43.3948612 13.4295423,42.3550511 C11.4623758,39.2841568 10.5955262,35.9024707 10.7945844,32.35783 C10.3557129,33.4042032 9.07490594,35.8976129 6.58654233,36.7320511 C4.98754233,37.2680511 2.88054233,37.1390511 0.174542331,35.4690511 C0.0465423306,35.3890511 -0.0204576694,35.2390511 0.00554233057,35.0900511 C0.628542331,31.4970511 1.93254233,29.5900511 3.38554233,28.6330511 C5.78054233,27.0570511 8.65254233,28.0330511 9.95354233,28.5680511 L9.99454233,28.5850511 C9.20454233,17.9750511 14.5035423,10.1650511 22.3115423,5.41005106 C30.0825423,0.678051062 40.3505423,-1.01294894 49.5555423,0.587051062 Z"/><path d="M33.4722217,54.3298275 L35.2911133,54.6949579 C34.2097132,61.3504716 44.7161273,63.5048777 48.162943,56.6621025 L48.162943,56.6621025 L52.6164238,56.6621025 C52.6164238,58.6705267 54.0259483,60.5780539 56.8449972,62.3846842 C60.057829,66.418929 61.3499234,71.3026499 60.7212804,77.0358472 C49.1790055,81.2126858 36.7083801,81.2126858 23.3094042,77.0358472 C23.9925607,70.0873672 25.1408297,64.7402947 26.7542114,60.9946296 C29.337358,60.7251479 31.5766948,58.5035472 33.4722217,54.3298275 L33.4722217,54.3298275 Z M54.0199854,68.1834315 C53.6175424,67.9692387 53.1126593,67.9951813 52.6164238,68.270572 C52.1607652,68.522681 51.706437,68.976344 51.3738395,69.5763499 C50.9141897,69.075458 50.3747165,68.7368738 49.8798114,68.5918612 C49.3509813,68.4368708 48.8680497,68.5067163 48.5387782,68.7927501 C48.2055155,69.0827752 48.077798,69.5583896 48.162943,70.1078408 C48.23811,70.5947635 48.4848974,71.1428843 48.88601,71.6471021 C48.2973124,71.9311404 47.8343366,72.328927 47.5542895,72.7426783 C47.2290091,73.2236144 47.1518465,73.7344842 47.3374359,74.1628698 C47.5243557,74.5919206 47.9593933,74.8819456 48.5387782,74.9810597 C49.015723,75.0635439 49.5957731,75.0116587 50.1851359,74.8107698 C50.2922323,75.4340575 50.5323677,75.9748611 50.8370271,76.360009 C51.2161882,76.8396147 51.7051066,77.0797501 52.1913642,77.0358472 C52.6829433,76.9912791 53.1153201,76.6553556 53.3966976,76.1085653 C53.6115556,75.6908228 53.7372775,75.1427021 53.7319559,74.5393702 C54.3372834,74.6158676 54.902034,74.5546697 55.3463843,74.3890361 C55.9364123,74.1695217 56.3235558,73.7657483 56.4246655,73.2748344 C56.521784,72.7879116 56.3302078,72.2650683 55.8778751,71.8300307 C55.525987,71.4921117 55.014452,71.2020866 54.4084593,71.0324619 C54.6579074,70.473698 54.7630082,69.9129386 54.7237617,69.4386545 C54.6765329,68.8606 54.4310759,68.4042762 54.0199854,68.1834315 Z"/><path d="M52.4055423,60.2370511 C54.2925423,60.6410511 55.5825423,61.6240511 56.5525423,62.8230511 C57.2685423,63.7070511 57.8015423,64.7130511 58.2545423,65.7070511 C58.8895423,67.0980511 59.3665423,68.4680511 59.8975423,69.4780511 C60.2805423,70.2050511 60.7105423,70.7560511 61.1995423,71.0700511 C61.7925423,71.4500511 62.4845423,71.5450511 63.3515423,71.1720511 C64.1675423,70.8160511 64.7635423,69.9870511 65.0435423,68.7850511 C65.5955423,66.4130511 64.9715423,62.4770511 63.2865423,58.9190511 C62.6905131,57.6600979 61.9643205,56.4493907 61.1180978,55.3721394 C61.0317937,55.2622733 60.2226028,55.5695631 60.298897,55.6702831 C61.1353918,56.7745845 61.838633,58.0260682 62.4035423,59.3210511 C63.6355423,62.1430511 64.2075423,65.1800511 64.0225423,67.3850511 C63.9595423,68.1370511 63.8095423,68.7840511 63.5535423,69.2740511 C63.3775423,69.6140511 63.1505423,69.8690511 62.8505423,69.9930511 C61.9615423,70.3690511 61.5085423,69.7410511 61.0245423,68.8410511 C60.5035423,67.8730511 60.0155423,66.5760511 59.3595423,65.2680511 C58.7575423,64.0690511 58.0225423,62.8600511 57.0185423,61.8750511 C55.8945423,60.7700511 54.4465423,59.9390511 52.4975423,59.6940511 C52.3475423,59.6680511 52.2055423,59.7690511 52.1795423,59.9190511 C52.1545423,60.0690511 52.2555423,60.2120511 52.4055423,60.2370511 Z"/><path d="M52.3715423,45.1820511 C53.0245423,45.2880511 53.6135423,45.4620511 54.1345423,45.6760511 C56.0215423,46.4500511 57.0155423,47.6730511 57.0155423,47.6730511 C57.1175423,47.7860511 57.1085423,47.9610511 56.9955423,48.0630511 C56.8825423,48.1650511 56.7075423,48.1560511 56.6055423,48.0430511 C56.6055423,48.0430511 55.5955423,47.0520511 53.8355423,46.5160511 C52.9725423,46.2540511 51.9295423,46.1080511 50.7265423,46.2540511 C50.4835423,46.2730511 50.2545423,46.1410511 50.1485423,45.9220511 C50.0425423,45.7030511 50.0815423,45.4410511 50.2475423,45.2630511 C50.8525423,44.5750511 51.5215423,44.1150511 52.2115423,43.8440511 C52.7415423,43.6360511 53.2815423,43.5320511 53.8015423,43.5160511 C54.5095423,43.4930511 55.1785423,43.6040511 55.7435423,43.7830511 C56.7955423,44.1150511 57.4695423,44.6090511 57.4695423,44.6090511 C57.6045423,44.6810511 57.6555423,44.8480511 57.5845423,44.9820511 C57.5125423,45.1160511 57.3455423,45.1680511 57.2115423,45.0960511 C57.2115423,45.0960511 56.5145423,44.8690511 55.5365423,44.7570511 C55.0435423,44.7000511 54.4845423,44.6860511 53.8955423,44.7560511 C53.4975423,44.8040511 53.0895423,44.8950511 52.6805423,45.0520511 C52.5775423,45.0910511 52.4745423,45.1340511 52.3715423,45.1820511 Z"/><circle cx="27.7447634" cy="40.2485829" r="2.97880691"/><path d="M33.0335423,45.3750511 C32.9065423,45.4120511 32.8235423,45.5340511 32.8355423,45.6660511 C32.8355423,45.6660511 32.8725423,46.5740511 33.3045423,47.7730511 C33.6155423,48.6350511 34.1325423,49.6430511 34.9795423,50.5630511 C36.0175423,51.6900511 37.5545423,52.6650511 39.7755423,53.1120511 C42.0225423,53.5070511 43.8195423,53.1400511 45.2065423,52.4660511 C47.9625423,51.1290511 49.1065423,48.6140511 49.1065423,48.6140511 C49.2235423,48.3680511 49.1495423,48.0740511 48.9305423,47.9130511 C48.9305423,47.9130511 47.6525423,46.9930511 45.1485423,46.1610511 C44.0565423,45.7990511 42.7295423,45.4520511 41.1705423,45.2060511 C39.6155423,44.9610511 38.2495423,44.8810511 37.1035423,44.8900511 C34.5075423,44.9100511 33.0335423,45.3750511 33.0335423,45.3750511 Z M47.8345423,48.5440511 C47.3095423,48.2180511 46.3005423,47.6580511 44.8155423,47.1090511 C43.7775423,46.7250511 42.5125423,46.3440511 41.0205423,46.0540511 C39.5245423,45.7610511 38.2055423,45.6340511 37.0955423,45.6000511 C35.2145423,45.5420511 33.9395423,45.7470511 33.4325423,45.8490511 C33.5815423,46.4950511 34.1225423,48.3390511 35.7105423,49.8450511 C36.6795423,50.7650511 38.0435423,51.5630511 39.9965423,51.8600511 C41.9255423,52.2010511 43.4625423,51.8850511 44.6615423,51.3240511 C46.3725423,50.5220511 47.3975423,49.2110511 47.8345423,48.5440511 Z"/><path d="M14.3325423,48.9520511 C14.0065423,47.8970511 13.9165423,46.6740511 14.4525423,45.7710511 C14.8725423,45.0620511 15.6575423,44.4980511 17.0415423,44.3770511 C17.9055423,44.3020511 18.6615423,45.0270511 18.8995423,45.9480511 C18.9075423,45.9760511 18.9145423,46.0050511 18.9205423,46.0340511 C19.0345423,45.6250511 19.2995423,45.2630511 19.6715423,45.0230511 C20.0155423,44.8010511 20.4395423,44.7490511 20.8975423,44.8740511 C21.5165423,45.0430511 22.2195423,45.5480511 22.7855423,46.2790511 C23.6505423,47.3950511 24.2095423,49.0200511 23.7235423,50.6090511 C24.9635423,51.1800511 26.4955423,51.9060511 28.2245423,52.5490511 C29.2655423,52.9350511 30.3775423,53.2930511 31.5415423,53.5660511 C31.6895423,53.5990511 31.7835423,53.7470511 31.7495423,53.8950511 C31.7165423,54.0440511 31.5695423,54.1380511 31.4205423,54.1040511 C30.2265423,53.8500511 29.0835423,53.5090511 28.0125423,53.1360511 C26.1085423,52.4720511 24.4355423,51.7030511 23.1215423,51.1340511 C22.9445423,51.0550511 22.8595423,50.8510511 22.9305423,50.6690511 C23.3725423,49.4980511 23.0925423,48.2960511 22.5425423,47.3590511 C22.0865423,46.5830511 21.4425423,45.9840511 20.8485423,45.7560511 C20.5865423,45.6560511 20.3405423,45.6260511 20.1535423,45.7530511 C19.9105423,45.9170511 19.7565423,46.1810511 19.7585423,46.4680511 C19.7605423,46.7260511 19.8975423,46.9900511 20.1765423,47.2230511 C21.0385423,47.9440511 21.0675423,48.6230511 20.7755423,49.1120511 C20.5235423,49.5360511 19.9175423,49.8770511 19.1315423,50.0060511 C18.3415423,50.1350511 17.6235423,49.5940511 17.2925423,48.9620511 C16.9475423,48.3030511 17.0665423,47.6060511 17.5855423,47.3040511 C17.9625423,47.0850511 17.9875423,46.6190511 17.8775423,46.2210511 C17.7675423,45.8230511 17.5185423,45.4220511 17.1445423,45.4600511 C15.9745423,45.5800511 15.4195423,46.0900511 15.2605423,46.7740511 C15.0595423,47.6420511 15.4095423,48.6900511 15.7935423,49.4260511 C15.9355423,49.7030511 15.8385423,50.0430511 15.5715423,50.2040511 C15.4115423,50.3020511 15.0555423,50.3510511 14.5845423,50.2480511 C14.0455423,50.1300511 13.2165423,49.8480511 12.5335423,49.8690511 C12.3435423,49.8750511 12.1675423,49.8990511 12.0415423,50.0060511 C11.9415423,50.0920511 11.8975423,50.2340511 11.8785423,50.4280511 C11.8365423,50.8520511 11.9665423,51.1150511 12.1975423,51.2740511 C12.4815423,51.4690511 12.8545423,51.5450511 13.1865423,51.6050511 C13.5715423,51.6760511 13.9205423,51.7240511 14.1385423,51.7990511 C14.4505423,51.9050511 14.6245423,52.0900511 14.7075423,52.2660511 C14.8535423,52.5750511 14.7935423,52.8350511 14.5635423,53.0620511 C14.4745423,53.1500511 14.2705423,53.2670511 13.9585423,53.3220511 C13.6755423,53.3720511 13.2105423,53.4070511 12.7915423,53.5350511 C12.5865423,53.5970511 12.3755423,53.6570511 12.2945423,53.8330511 C12.2565423,53.9170511 12.2665423,54.0230511 12.2985423,54.1540511 C12.3305423,54.2850511 12.3745423,54.3820511 12.4535423,54.4360511 C12.5615423,54.5100511 12.7025423,54.5170511 12.8485423,54.5140511 C13.5905423,54.5010511 14.4735423,54.1050511 14.8985423,54.0500511 C15.2845423,54.0010511 15.5405423,54.1340511 15.6775423,54.2800511 C15.9415423,54.5610511 15.9705423,54.8590511 15.7905423,55.1850511 C15.7105423,55.3300511 15.5225423,55.5160511 15.2745423,55.7070511 C15.0895423,55.8500511 14.8255423,55.9990511 14.7455423,56.2320511 C14.7025423,56.3600511 14.7925423,56.4860511 14.9675423,56.6720511 C15.2595423,56.9820511 15.6565423,56.8910511 16.0455423,56.7330511 C16.8535423,56.4030511 17.6485423,55.6970511 18.0335423,55.4100511 C18.2225423,55.2680511 18.3725423,55.1970511 18.4505423,55.1780511 C18.6545423,55.1280511 18.8055423,55.1780511 18.9115423,55.2460511 C19.4145423,55.5740511 20.9045423,57.3460511 23.9965423,59.0440511 C25.5265423,59.8850511 27.4465423,60.7160511 29.8485423,61.3310511 C29.9975423,61.3660511 30.0895423,61.5140511 30.0555423,61.6620511 C30.0215423,61.8100511 29.8735423,61.9030511 29.7255423,61.8690511 C27.2245423,61.3600511 25.2035423,60.6130511 23.5925423,59.8180511 C20.8425423,58.4610511 19.3015423,56.9790511 18.5965423,56.3970511 C18.0355423,56.8550511 16.9615423,57.7720511 15.9645423,58.0150511 C15.2755423,58.1830511 14.6175423,58.0700511 14.0815423,57.5210511 C13.4445423,56.8670511 13.4145423,56.2980511 13.5625423,55.8400511 C13.5755423,55.7980511 13.5915423,55.7570511 13.6085423,55.7160511 L13.6015423,55.7180511 C13.1565423,55.8120511 12.7075423,55.8430511 12.3225423,55.7600511 C11.7225423,55.6300511 11.2335423,55.2680511 11.0355423,54.4620511 C10.9305423,54.0260511 10.9665423,53.6720511 11.0775423,53.3830511 C11.2165423,53.0180511 11.4815423,52.7420511 11.8255423,52.5440511 L11.8555423,52.5280511 C11.7225423,52.4650511 11.5945423,52.3930511 11.4765423,52.3100511 C10.9235423,51.9210511 10.5275423,51.3170511 10.6425423,50.2970511 C10.7485423,49.3530511 11.2445423,48.9130511 11.8885423,48.7340511 C12.5885423,48.5400511 13.5595423,48.7500511 14.3325423,48.9520511 Z M13.5855423,52.2400511 C13.7545423,52.2040511 13.8515423,52.1460511 13.8235423,52.0370511 C13.8065423,51.9700511 13.7185423,52.0960511 13.6905423,52.1210511 C13.6465423,52.1580511 13.6125423,52.1980511 13.5855423,52.2400511 Z M18.9395423,46.9990511 C18.8435423,47.4820511 18.5785423,47.9160511 18.1125423,48.1840511 C18.1115423,48.2160511 18.1115423,48.2930511 18.1245423,48.3410511 C18.1695423,48.5040511 18.2715423,48.6740511 18.4095423,48.8080511 C18.5615423,48.9560511 18.7595423,49.0720511 18.9825423,49.0400511 C19.4325423,48.9740511 19.8155423,48.8570511 19.9635423,48.6180511 C20.0085423,48.5460511 19.9985423,48.4590511 19.9485423,48.3620511 C19.8795423,48.2250511 19.7565423,48.0820511 19.5775423,47.9270511 C19.2455423,47.6390511 19.0415423,47.3190511 18.9395423,46.9990511 Z"/></g></g></g><text x="0" y="115" fill="#000000" font-size="5px" font-weight="bold" font-family="'Helvetica Neue', Helvetica, Arial-Unicode, Arial, Sans-serif">Created by Xinh Studio</text><text x="0" y="120" fill="#000000" font-size="5px" font-weight="bold" font-family="'Helvetica Neue', Helvetica, Arial-Unicode, Arial, Sans-serif">from the Noun Project</text></svg>